# xmcd
#
# Track frame offsets:
#	150
#	17519
#	39953
#	59056
#	79250
#	99615
#	117537
#	138246
#	160588
#	176641
#	196296
#	213337
#	227265
#	254302
#
# Disc length: 3685 seconds
#
# Revision: 1
# Processed by: cddbd v1.5PL3 Copyright (c) Steve Scherf et al.
# Submitted via: EasyCDDAExtractor 6.5.5.1
#
DISCID=b50e630e
DTITLE=Steven Seagal - Songs From The Crystal Cave
DYEAR=2004
DGENRE=Blues
TTITLE0=Girl It's Alright
TTITLE1=Don't You Cry
TTITLE2=Music
TTITLE3=Better Man
TTITLE4=Route 23
TTITLE5=My God
TTITLE6=Lollipop
TTITLE7=Not For Sale
TTITLE8=Dance
TTITLE9=Jealousy
TTITLE10=War
TTITLE11=Strut
TTITLE12=Goree
TTITLE13=The Light
EXTD=
EXTT0=
EXTT1=
EXTT2=
EXTT3=
EXTT4=
EXTT5=
EXTT6=
EXTT7=
EXTT8=
EXTT9=
EXTT10=
EXTT11=
EXTT12=
EXTT13=
PLAYORDER=
